<svg xmlns="http://www.w3.org/2000/svg" xmlns:xlink="http://www.w3.org/1999/xlink" contentStyleType="text/css" height="1571px" preserveAspectRatio="none" style="width:489px;height:1571px;background:#FFFFFF;" version="1.1" viewBox="0 0 489 1571" width="489px" zoomAndPan="magnify"><title>ER-&#1076;&#1080;&#1072;&#1075;&#1088;&#1072;&#1084;&#1084;&#1072; "Aruco marks Service"</title><defs/><g><text fill="#A0522D" font-family="sans-serif" font-size="14" font-weight="bold" lengthAdjust="spacing" textLength="297.4521" x="88.9039" y="22.9951">ER-&#1076;&#1080;&#1072;&#1075;&#1088;&#1072;&#1084;&#1084;&#1072; "Aruco marks Service"</text><!--class users--><g id="elem_users"><rect codeLine="26" fill="#F1F1F1" height="113.1875" id="users" rx="2.5" ry="2.5" style="stroke:#181818;stroke-width:0.5;" width="339.79" x="78.2" y="1208.7969"/><rect fill="#98FB98" height="32" rx="2.5" ry="2.5" style="stroke:#98FB98;stroke-width:0.5;" width="339.79" x="78.2" y="1208.7969"/><rect fill="#98FB98" height="2.5" style="stroke:#98FB98;stroke-width:0.5;" width="339.79" x="78.2" y="1238.2969"/><rect codeLine="26" fill="none" height="113.1875" id="users" rx="2.5" ry="2.5" style="stroke:#181818;stroke-width:0.5;" width="339.79" x="78.2" y="1208.7969"/><ellipse cx="219.8919" cy="1224.7969" fill="#ADD1B2" rx="11" ry="11" style="stroke:#181818;stroke-width:1;"/><path d="M224.0013,1230.7969 L216.2825,1230.7969 L216.2825,1218.4063 L224.0013,1218.4063 L224.0013,1220.5625 L218.7356,1220.5625 L218.7356,1223.2344 L223.5013,1223.2344 L223.5013,1225.3906 L218.7356,1225.3906 L218.7356,1228.6406 L224.0013,1228.6406 L224.0013,1230.7969 Z " fill="#000000"/><text fill="#000000" font-family="sans-serif" font-size="14" font-weight="bold" lengthAdjust="spacing" textLength="43.0322" x="240.3919" y="1229.6436">users</text><line style="stroke:#181818;stroke-width:0.5;" x1="79.2" x2="416.99" y1="1240.7969" y2="1240.7969"/><ellipse cx="89.2" cy="1254.4453" fill="#000000" rx="3" ry="3" style="stroke:#000000;stroke-width:1;"/><text fill="#4169E1" font-family="sans-serif" font-size="14" lengthAdjust="spacing" textLength="204.3877" x="98.2" y="1257.792">id : uuid &#171;autogenerated PK&#187;</text><line style="stroke:#181818;stroke-width:1;stroke-dasharray:1.0,2.0;" x1="79.2" x2="416.99" y1="1265.0938" y2="1265.0938"/><ellipse cx="89.2" cy="1278.7422" fill="#000000" rx="3" ry="3" style="stroke:#000000;stroke-width:1;"/><text fill="#000000" font-family="sans-serif" font-size="14" lengthAdjust="spacing" textLength="239.2715" x="98.2" y="1282.0889">access_level : uuid &#171;access.id FK&#187;</text><ellipse cx="89.2" cy="1295.0391" fill="#000000" rx="3" ry="3" style="stroke:#000000;stroke-width:1;"/><text fill="#000000" font-family="sans-serif" font-size="14" lengthAdjust="spacing" textLength="138.8926" x="98.2" y="1298.3857">login : varchar(100)</text><ellipse cx="89.2" cy="1311.3359" fill="#000000" rx="3" ry="3" style="stroke:#000000;stroke-width:1;"/><text fill="#DC143C" font-family="sans-serif" font-size="14" lengthAdjust="spacing" textLength="209.002" x="98.2" y="1314.6826">password &#171;hashed&#187; &#171;unique&#187;</text><text fill="#000000" font-family="sans-serif" font-size="14" lengthAdjust="spacing" textLength="100.3379" x="311.6521" y="1314.6826">: varchar(64)</text></g><!--class access--><g id="elem_access"><rect codeLine="34" fill="#F1F1F1" height="80.5938" id="access" rx="2.5" ry="2.5" style="stroke:#181818;stroke-width:0.5;" width="230.3877" x="132.7" y="1365.2969"/><rect fill="#98FB98" height="32" rx="2.5" ry="2.5" style="stroke:#98FB98;stroke-width:0.5;" width="230.3877" x="132.7" y="1365.2969"/><rect fill="#98FB98" height="2.5" style="stroke:#98FB98;stroke-width:0.5;" width="230.3877" x="132.7" y="1394.7969"/><rect codeLine="34" fill="none" height="80.5938" id="access" rx="2.5" ry="2.5" style="stroke:#181818;stroke-width:0.5;" width="230.3877" x="132.7" y="1365.2969"/><ellipse cx="215.1038" cy="1381.2969" fill="#ADD1B2" rx="11" ry="11" style="stroke:#181818;stroke-width:1;"/><path d="M219.2132,1387.2969 L211.4944,1387.2969 L211.4944,1374.9063 L219.2132,1374.9063 L219.2132,1377.0625 L213.9476,1377.0625 L213.9476,1379.7344 L218.7132,1379.7344 L218.7132,1381.8906 L213.9476,1381.8906 L213.9476,1385.1406 L219.2132,1385.1406 L219.2132,1387.2969 Z " fill="#000000"/><text fill="#000000" font-family="sans-serif" font-size="14" font-weight="bold" lengthAdjust="spacing" textLength="52.2061" x="235.6038" y="1386.1436">access</text><line style="stroke:#181818;stroke-width:0.5;" x1="133.7" x2="362.0877" y1="1397.2969" y2="1397.2969"/><ellipse cx="143.7" cy="1410.9453" fill="#000000" rx="3" ry="3" style="stroke:#000000;stroke-width:1;"/><text fill="#4169E1" font-family="sans-serif" font-size="14" lengthAdjust="spacing" textLength="204.3877" x="152.7" y="1414.292">id : uuid &#171;autogenerated PK&#187;</text><line style="stroke:#181818;stroke-width:1;stroke-dasharray:1.0,2.0;" x1="133.7" x2="362.0877" y1="1421.5938" y2="1421.5938"/><text fill="#000000" font-family="sans-serif" font-size="14" lengthAdjust="spacing" textLength="144.4912" x="138.7" y="1438.5889">name : varchar(100)</text></g><!--class access_to_privileges--><g id="elem_access_to_privileges"><rect codeLine="40" fill="#F1F1F1" height="80.5938" id="access_to_privileges" rx="2.5" ry="2.5" style="stroke:#181818;stroke-width:0.5;" width="271.8271" x="112.2" y="806.2969"/><rect fill="#98FB98" height="32" rx="2.5" ry="2.5" style="stroke:#98FB98;stroke-width:0.5;" width="271.8271" x="112.2" y="806.2969"/><rect fill="#98FB98" height="2.5" style="stroke:#98FB98;stroke-width:0.5;" width="271.8271" x="112.2" y="835.7969"/><rect codeLine="40" fill="none" height="80.5938" id="access_to_privileges" rx="2.5" ry="2.5" style="stroke:#181818;stroke-width:0.5;" width="271.8271" x="112.2" y="806.2969"/><ellipse cx="161.2718" cy="822.2969" fill="#ADD1B2" rx="11" ry="11" style="stroke:#181818;stroke-width:1;"/><path d="M165.3812,828.2969 L157.6624,828.2969 L157.6624,815.9063 L165.3812,815.9063 L165.3812,818.0625 L160.1155,818.0625 L160.1155,820.7344 L164.8812,820.7344 L164.8812,822.8906 L160.1155,822.8906 L160.1155,826.1406 L165.3812,826.1406 L165.3812,828.2969 Z " fill="#000000"/><text fill="#000000" font-family="sans-serif" font-size="14" font-weight="bold" lengthAdjust="spacing" textLength="160.3096" x="181.7718" y="827.1436">access_to_privileges</text><line style="stroke:#181818;stroke-width:0.5;" x1="113.2" x2="383.0271" y1="838.2969" y2="838.2969"/><ellipse cx="123.2" cy="851.9453" fill="#000000" rx="3" ry="3" style="stroke:#000000;stroke-width:1;"/><text fill="#000000" font-family="sans-serif" font-size="14" lengthAdjust="spacing" textLength="218.7568" x="132.2" y="855.292">access_id : uuid &#171;access.id FK&#187;</text><ellipse cx="123.2" cy="868.2422" fill="#000000" rx="3" ry="3" style="stroke:#000000;stroke-width:1;"/><text fill="#000000" font-family="sans-serif" font-size="14" lengthAdjust="spacing" textLength="245.8271" x="132.2" y="871.5889">privilege_id : uuid &#171;privilege.id FK&#187;</text><line style="stroke:#181818;stroke-width:0.5;" x1="113.2" x2="383.0271" y1="878.8906" y2="878.8906"/></g><!--class privilege--><g id="elem_privilege"><rect codeLine="45" fill="#F1F1F1" height="80.5938" id="privilege" rx="2.5" ry="2.5" style="stroke:#181818;stroke-width:0.5;" width="230.3877" x="132.7" y="929.2969"/><rect fill="#98FB98" height="32" rx="2.5" ry="2.5" style="stroke:#98FB98;stroke-width:0.5;" width="230.3877" x="132.7" y="929.2969"/><rect fill="#98FB98" height="2.5" style="stroke:#98FB98;stroke-width:0.5;" width="230.3877" x="132.7" y="958.7969"/><rect codeLine="45" fill="none" height="80.5938" id="privilege" rx="2.5" ry="2.5" style="stroke:#181818;stroke-width:0.5;" width="230.3877" x="132.7" y="929.2969"/><ellipse cx="206.4769" cy="945.2969" fill="#ADD1B2" rx="11" ry="11" style="stroke:#181818;stroke-width:1;"/><path d="M210.5862,951.2969 L202.8675,951.2969 L202.8675,938.9063 L210.5862,938.9063 L210.5862,941.0625 L205.3206,941.0625 L205.3206,943.7344 L210.0862,943.7344 L210.0862,945.8906 L205.3206,945.8906 L205.3206,949.1406 L210.5862,949.1406 L210.5862,951.2969 Z " fill="#000000"/><text fill="#000000" font-family="sans-serif" font-size="14" font-weight="bold" lengthAdjust="spacing" textLength="69.46" x="226.9769" y="950.1436">privilege</text><line style="stroke:#181818;stroke-width:0.5;" x1="133.7" x2="362.0877" y1="961.2969" y2="961.2969"/><ellipse cx="143.7" cy="974.9453" fill="#000000" rx="3" ry="3" style="stroke:#000000;stroke-width:1;"/><text fill="#4169E1" font-family="sans-serif" font-size="14" lengthAdjust="spacing" textLength="204.3877" x="152.7" y="978.292">id : uuid &#171;autogenerated PK&#187;</text><line style="stroke:#181818;stroke-width:1;stroke-dasharray:1.0,2.0;" x1="133.7" x2="362.0877" y1="985.5938" y2="985.5938"/><ellipse cx="143.7" cy="999.2422" fill="#000000" rx="3" ry="3" style="stroke:#000000;stroke-width:1;"/><text fill="#000000" font-family="sans-serif" font-size="14" lengthAdjust="spacing" textLength="144.4912" x="152.7" y="1002.5889">name : varchar(100)</text></g><!--class user_actions--><g id="elem_user_actions"><rect codeLine="51" fill="#F1F1F1" height="113.1875" id="user_actions" rx="2.5" ry="2.5" style="stroke:#181818;stroke-width:0.5;" width="230.3877" x="132.7" y="1052.7969"/><rect fill="#98FB98" height="32" rx="2.5" ry="2.5" style="stroke:#98FB98;stroke-width:0.5;" width="230.3877" x="132.7" y="1052.7969"/><rect fill="#98FB98" height="2.5" style="stroke:#98FB98;stroke-width:0.5;" width="230.3877" x="132.7" y="1082.2969"/><rect codeLine="51" fill="none" height="113.1875" id="user_actions" rx="2.5" ry="2.5" style="stroke:#181818;stroke-width:0.5;" width="230.3877" x="132.7" y="1052.7969"/><ellipse cx="191.7796" cy="1068.7969" fill="#ADD1B2" rx="11" ry="11" style="stroke:#181818;stroke-width:1;"/><path d="M195.889,1074.7969 L188.1702,1074.7969 L188.1702,1062.4063 L195.889,1062.4063 L195.889,1064.5625 L190.6233,1064.5625 L190.6233,1067.2344 L195.389,1067.2344 L195.389,1069.3906 L190.6233,1069.3906 L190.6233,1072.6406 L195.889,1072.6406 L195.889,1074.7969 Z " fill="#000000"/><text fill="#000000" font-family="sans-serif" font-size="14" font-weight="bold" lengthAdjust="spacing" textLength="98.8545" x="212.2796" y="1073.6436">user_actions</text><line style="stroke:#181818;stroke-width:0.5;" x1="133.7" x2="362.0877" y1="1084.7969" y2="1084.7969"/><ellipse cx="143.7" cy="1098.4453" fill="#000000" rx="3" ry="3" style="stroke:#000000;stroke-width:1;"/><text fill="#4169E1" font-family="sans-serif" font-size="14" lengthAdjust="spacing" textLength="204.3877" x="152.7" y="1101.792">id : uuid &#171;autogenerated PK&#187;</text><line style="stroke:#181818;stroke-width:1;stroke-dasharray:1.0,2.0;" x1="133.7" x2="362.0877" y1="1109.0938" y2="1109.0938"/><ellipse cx="143.7" cy="1122.7422" fill="#000000" rx="3" ry="3" style="stroke:#000000;stroke-width:1;"/><text fill="#000000" font-family="sans-serif" font-size="14" lengthAdjust="spacing" textLength="144.4912" x="152.7" y="1126.0889">name : varchar(100)</text><ellipse cx="143.7" cy="1139.0391" fill="#000000" rx="3" ry="3" style="stroke:#000000;stroke-width:1;"/><text fill="#000000" font-family="sans-serif" font-size="14" lengthAdjust="spacing" textLength="192.7734" x="152.7" y="1142.3857">user_id : uuid &#171;users.id FK&#187;</text><ellipse cx="143.7" cy="1155.3359" fill="#000000" rx="3" ry="3" style="stroke:#000000;stroke-width:1;"/><text fill="#000000" font-family="sans-serif" font-size="14" lengthAdjust="spacing" textLength="120.7637" x="152.7" y="1158.6826">time : timestamp</text></g><!--class marks--><g id="elem_marks"><rect codeLine="59" fill="#F1F1F1" height="96.8906" id="marks" rx="2.5" ry="2.5" style="stroke:#181818;stroke-width:0.5;" width="286.6338" x="104.7" y="528.2969"/><rect fill="#98FB98" height="32" rx="2.5" ry="2.5" style="stroke:#98FB98;stroke-width:0.5;" width="286.6338" x="104.7" y="528.2969"/><rect fill="#98FB98" height="2.5" style="stroke:#98FB98;stroke-width:0.5;" width="286.6338" x="104.7" y="557.7969"/><rect codeLine="59" fill="none" height="96.8906" id="marks" rx="2.5" ry="2.5" style="stroke:#181818;stroke-width:0.5;" width="286.6338" x="104.7" y="528.2969"/><ellipse cx="217.0384" cy="544.2969" fill="#ADD1B2" rx="11" ry="11" style="stroke:#181818;stroke-width:1;"/><path d="M221.1478,550.2969 L213.429,550.2969 L213.429,537.9063 L221.1478,537.9063 L221.1478,540.0625 L215.8821,540.0625 L215.8821,542.7344 L220.6478,542.7344 L220.6478,544.8906 L215.8821,544.8906 L215.8821,548.1406 L221.1478,548.1406 L221.1478,550.2969 Z " fill="#000000"/><text fill="#000000" font-family="sans-serif" font-size="14" font-weight="bold" lengthAdjust="spacing" textLength="48.583" x="237.5384" y="549.1436">marks</text><line style="stroke:#181818;stroke-width:0.5;" x1="105.7" x2="390.3338" y1="560.2969" y2="560.2969"/><ellipse cx="115.7" cy="573.9453" fill="#000000" rx="3" ry="3" style="stroke:#000000;stroke-width:1;"/><text fill="#4169E1" font-family="sans-serif" font-size="14" lengthAdjust="spacing" textLength="204.3877" x="124.7" y="577.292">id : uuid &#171;autogenerated PK&#187;</text><line style="stroke:#181818;stroke-width:1;stroke-dasharray:1.0,2.0;" x1="105.7" x2="390.3338" y1="584.5938" y2="584.5938"/><ellipse cx="115.7" cy="598.2422" fill="#000000" rx="3" ry="3" style="stroke:#000000;stroke-width:1;"/><text fill="#000000" font-family="sans-serif" font-size="14" lengthAdjust="spacing" textLength="96.5986" x="124.7" y="601.5889">mark_id : uint</text><ellipse cx="115.7" cy="614.5391" fill="#000000" rx="3" ry="3" style="stroke:#000000;stroke-width:1;"/><text fill="#000000" font-family="sans-serif" font-size="14" lengthAdjust="spacing" textLength="260.6338" x="124.7" y="617.8857">mark_type : uuid &#171;mark_types.id FK&#187;</text></g><!--class mark_types--><g id="elem_mark_types"><rect codeLine="66" fill="#F1F1F1" height="96.8906" id="mark_types" rx="2.5" ry="2.5" style="stroke:#181818;stroke-width:0.5;" width="230.3877" x="132.7" y="667.2969"/><rect fill="#98FB98" height="32" rx="2.5" ry="2.5" style="stroke:#98FB98;stroke-width:0.5;" width="230.3877" x="132.7" y="667.2969"/><rect fill="#98FB98" height="2.5" style="stroke:#98FB98;stroke-width:0.5;" width="230.3877" x="132.7" y="696.7969"/><rect codeLine="66" fill="none" height="96.8906" id="mark_types" rx="2.5" ry="2.5" style="stroke:#181818;stroke-width:0.5;" width="230.3877" x="132.7" y="667.2969"/><ellipse cx="195.7479" cy="683.2969" fill="#ADD1B2" rx="11" ry="11" style="stroke:#181818;stroke-width:1;"/><path d="M199.8572,689.2969 L192.1385,689.2969 L192.1385,676.9063 L199.8572,676.9063 L199.8572,679.0625 L194.5916,679.0625 L194.5916,681.7344 L199.3572,681.7344 L199.3572,683.8906 L194.5916,683.8906 L194.5916,687.1406 L199.8572,687.1406 L199.8572,689.2969 Z " fill="#000000"/><text fill="#000000" font-family="sans-serif" font-size="14" font-weight="bold" lengthAdjust="spacing" textLength="90.918" x="216.2479" y="688.1436">mark_types</text><line style="stroke:#181818;stroke-width:0.5;" x1="133.7" x2="362.0877" y1="699.2969" y2="699.2969"/><ellipse cx="143.7" cy="712.9453" fill="#000000" rx="3" ry="3" style="stroke:#000000;stroke-width:1;"/><text fill="#4169E1" font-family="sans-serif" font-size="14" lengthAdjust="spacing" textLength="204.3877" x="152.7" y="716.292">id : uuid &#171;autogenerated PK&#187;</text><line style="stroke:#181818;stroke-width:1;stroke-dasharray:1.0,2.0;" x1="133.7" x2="362.0877" y1="723.5938" y2="723.5938"/><ellipse cx="143.7" cy="737.2422" fill="#000000" rx="3" ry="3" style="stroke:#000000;stroke-width:1;"/><text fill="#000000" font-family="sans-serif" font-size="14" lengthAdjust="spacing" textLength="144.4912" x="152.7" y="740.5889">name : varchar(100)</text><text fill="#000000" font-family="sans-serif" font-size="14" lengthAdjust="spacing" textLength="147.998" x="152.7" y="756.8857">family : varchar(100)</text></g><!--class locations--><g id="elem_locations"><rect codeLine="73" fill="#F1F1F1" height="113.1875" id="locations" rx="2.5" ry="2.5" style="stroke:#181818;stroke-width:0.5;" width="230.3877" x="132.7" y="371.7969"/><rect fill="#98FB98" height="32" rx="2.5" ry="2.5" style="stroke:#98FB98;stroke-width:0.5;" width="230.3877" x="132.7" y="371.7969"/><rect fill="#98FB98" height="2.5" style="stroke:#98FB98;stroke-width:0.5;" width="230.3877" x="132.7" y="401.2969"/><rect codeLine="73" fill="none" height="113.1875" id="locations" rx="2.5" ry="2.5" style="stroke:#181818;stroke-width:0.5;" width="230.3877" x="132.7" y="371.7969"/><ellipse cx="205.4207" cy="387.7969" fill="#ADD1B2" rx="11" ry="11" style="stroke:#181818;stroke-width:1;"/><path d="M209.5301,393.7969 L201.8113,393.7969 L201.8113,381.4063 L209.5301,381.4063 L209.5301,383.5625 L204.2645,383.5625 L204.2645,386.2344 L209.0301,386.2344 L209.0301,388.3906 L204.2645,388.3906 L204.2645,391.6406 L209.5301,391.6406 L209.5301,393.7969 Z " fill="#000000"/><text fill="#000000" font-family="sans-serif" font-size="14" font-weight="bold" lengthAdjust="spacing" textLength="71.5723" x="225.9207" y="392.6436">locations</text><line style="stroke:#181818;stroke-width:0.5;" x1="133.7" x2="362.0877" y1="403.7969" y2="403.7969"/><ellipse cx="143.7" cy="417.4453" fill="#000000" rx="3" ry="3" style="stroke:#000000;stroke-width:1;"/><text fill="#4169E1" font-family="sans-serif" font-size="14" lengthAdjust="spacing" textLength="204.3877" x="152.7" y="420.792">id : uuid &#171;autogenerated PK&#187;</text><line style="stroke:#181818;stroke-width:1;stroke-dasharray:1.0,2.0;" x1="133.7" x2="362.0877" y1="428.0938" y2="428.0938"/><text fill="#000000" font-family="sans-serif" font-size="14" lengthAdjust="spacing" textLength="144.4912" x="152.7" y="445.0889">name : varchar(100)</text><ellipse cx="143.7" cy="458.0391" fill="#000000" rx="3" ry="3" style="stroke:#000000;stroke-width:1;"/><text fill="#000000" font-family="sans-serif" font-size="14" lengthAdjust="spacing" textLength="123.0469" x="152.7" y="461.3857">min_pos : float[3]</text><ellipse cx="143.7" cy="474.3359" fill="#000000" rx="3" ry="3" style="stroke:#000000;stroke-width:1;"/><text fill="#000000" font-family="sans-serif" font-size="14" lengthAdjust="spacing" textLength="127.1484" x="152.7" y="477.6826">max_pos : float[3]</text></g><!--class objects--><g id="elem_objects"><rect codeLine="83" fill="#F1F1F1" height="145.7813" id="objects" rx="2.5" ry="2.5" style="stroke:#181818;stroke-width:0.5;" width="268.7988" x="113.7" y="183.7969"/><rect fill="#98FB98" height="32" rx="2.5" ry="2.5" style="stroke:#98FB98;stroke-width:0.5;" width="268.7988" x="113.7" y="183.7969"/><rect fill="#98FB98" height="2.5" style="stroke:#98FB98;stroke-width:0.5;" width="268.7988" x="113.7" y="213.2969"/><rect codeLine="83" fill="none" height="145.7813" id="objects" rx="2.5" ry="2.5" style="stroke:#181818;stroke-width:0.5;" width="268.7988" x="113.7" y="183.7969"/><ellipse cx="212.7835" cy="199.7969" fill="#ADD1B2" rx="11" ry="11" style="stroke:#181818;stroke-width:1;"/><path d="M216.8929,205.7969 L209.1741,205.7969 L209.1741,193.4063 L216.8929,193.4063 L216.8929,195.5625 L211.6272,195.5625 L211.6272,198.2344 L216.3929,198.2344 L216.3929,200.3906 L211.6272,200.3906 L211.6272,203.6406 L216.8929,203.6406 L216.8929,205.7969 Z " fill="#000000"/><text fill="#000000" font-family="sans-serif" font-size="14" font-weight="bold" lengthAdjust="spacing" textLength="57.2578" x="233.2835" y="204.6436">objects</text><line style="stroke:#181818;stroke-width:0.5;" x1="114.7" x2="381.4988" y1="215.7969" y2="215.7969"/><ellipse cx="124.7" cy="229.4453" fill="#000000" rx="3" ry="3" style="stroke:#000000;stroke-width:1;"/><text fill="#4169E1" font-family="sans-serif" font-size="14" lengthAdjust="spacing" textLength="204.3877" x="133.7" y="232.792">id : uuid &#171;autogenerated PK&#187;</text><line style="stroke:#181818;stroke-width:1;stroke-dasharray:1.0,2.0;" x1="114.7" x2="381.4988" y1="240.0938" y2="240.0938"/><text fill="#000000" font-family="sans-serif" font-size="14" lengthAdjust="spacing" textLength="144.4912" x="133.7" y="257.0889">name : varchar(100)</text><text fill="#000000" font-family="sans-serif" font-size="14" lengthAdjust="spacing" textLength="92.0459" x="133.7" y="273.3857">size : float[3]</text><ellipse cx="124.7" cy="286.3359" fill="#000000" rx="3" ry="3" style="stroke:#000000;stroke-width:1;"/><text fill="#000000" font-family="sans-serif" font-size="14" lengthAdjust="spacing" textLength="242.7988" x="133.7" y="289.6826">location_id : uuid &#171;locations.id FK&#187;</text><ellipse cx="124.7" cy="302.6328" fill="#000000" rx="3" ry="3" style="stroke:#000000;stroke-width:1;"/><text fill="#000000" font-family="sans-serif" font-size="14" lengthAdjust="spacing" textLength="152.6055" x="133.7" y="305.9795">last_position : float[3]</text><ellipse cx="124.7" cy="318.9297" fill="#000000" rx="3" ry="3" style="stroke:#000000;stroke-width:1;"/><text fill="#000000" font-family="sans-serif" font-size="14" lengthAdjust="spacing" textLength="209.3438" x="133.7" y="322.2764">last_update_time : timestamp</text></g><!--class marks_on_objects--><g id="elem_marks_on_objects"><rect codeLine="93" fill="#F1F1F1" height="96.8906" id="marks_on_objects" rx="2.5" ry="2.5" style="stroke:#181818;stroke-width:0.5;" width="243.9844" x="126.2" y="44.2969"/><rect fill="#98FB98" height="32" rx="2.5" ry="2.5" style="stroke:#98FB98;stroke-width:0.5;" width="243.9844" x="126.2" y="44.2969"/><rect fill="#98FB98" height="2.5" style="stroke:#98FB98;stroke-width:0.5;" width="243.9844" x="126.2" y="73.7969"/><rect codeLine="93" fill="none" height="96.8906" id="marks_on_objects" rx="2.5" ry="2.5" style="stroke:#181818;stroke-width:0.5;" width="243.9844" x="126.2" y="44.2969"/><ellipse cx="171.7923" cy="60.2969" fill="#ADD1B2" rx="11" ry="11" style="stroke:#181818;stroke-width:1;"/><path d="M175.9017,66.2969 L168.1829,66.2969 L168.1829,53.9063 L175.9017,53.9063 L175.9017,56.0625 L170.636,56.0625 L170.636,58.7344 L175.4017,58.7344 L175.4017,60.8906 L170.636,60.8906 L170.636,64.1406 L175.9017,64.1406 L175.9017,66.2969 Z " fill="#000000"/><text fill="#000000" font-family="sans-serif" font-size="14" font-weight="bold" lengthAdjust="spacing" textLength="139.4258" x="192.2923" y="65.1436">marks_on_objects</text><line style="stroke:#181818;stroke-width:0.5;" x1="127.2" x2="369.1844" y1="76.2969" y2="76.2969"/><ellipse cx="137.2" cy="89.9453" fill="#000000" rx="3" ry="3" style="stroke:#000000;stroke-width:1;"/><text fill="#000000" font-family="sans-serif" font-size="14" lengthAdjust="spacing" textLength="203.8613" x="146.2" y="93.292">mark_id : uuid &#171;marks.id FK&#187;</text><ellipse cx="137.2" cy="106.2422" fill="#000000" rx="3" ry="3" style="stroke:#000000;stroke-width:1;"/><text fill="#000000" font-family="sans-serif" font-size="14" lengthAdjust="spacing" textLength="217.9844" x="146.2" y="109.5889">object_id : uuid &#171;objects.id FK&#187;</text><ellipse cx="137.2" cy="122.5391" fill="#000000" rx="3" ry="3" style="stroke:#000000;stroke-width:1;"/><text fill="#000000" font-family="sans-serif" font-size="14" lengthAdjust="spacing" textLength="149.7617" x="146.2" y="125.8857">relative_pos : float[3]</text><line style="stroke:#181818;stroke-width:0.5;" x1="127.2" x2="369.1844" y1="133.1875" y2="133.1875"/></g><!--link users to access--><g id="link_users_access"><path codeLine="99" d="M418.7,1277.2969 C482.26,1277.2969 433.26,1409.2969 369.7,1409.2969 " fill="none" id="users-to-access" style="stroke:#181818;stroke-width:1;"/><polygon fill="#181818" points="363.7,1409.2969,372.7,1413.2969,368.7,1409.2969,372.7,1405.2969,363.7,1409.2969" style="stroke:#181818;stroke-width:1;"/></g><!--link marks to mark_types--><g id="link_marks_mark_types"><path codeLine="100" d="M391.7,612.2969 C437.43,612.2969 415.43,711.2969 369.7,711.2969 " fill="none" id="marks-to-mark_types" style="stroke:#181818;stroke-width:1;"/><polygon fill="#181818" points="363.7,711.2969,372.7,715.2969,368.7,711.2969,372.7,707.2969,363.7,711.2969" style="stroke:#181818;stroke-width:1;"/></g><!--link objects to locations--><g id="link_objects_locations"><path codeLine="101" d="M382.7,284.2969 C441.53,284.2969 428.53,415.2969 369.7,415.2969 " fill="none" id="objects-to-locations" style="stroke:#181818;stroke-width:1;"/><polygon fill="#181818" points="363.7,415.2969,372.7,419.2969,368.7,415.2969,372.7,411.2969,363.7,415.2969" style="stroke:#181818;stroke-width:1;"/></g><!--link user_actions to users--><g id="link_user_actions_users"><path codeLine="102" d="M363.7,1137.2969 C402.12,1137.2969 404.6,1168.6769 417.7,1204.7969 C424.9,1224.6469 445.82,1252.2969 424.7,1252.2969 " fill="none" id="user_actions-to-users" style="stroke:#181818;stroke-width:1;"/><polygon fill="#181818" points="418.7,1252.2969,427.7,1256.2969,423.7,1252.2969,427.7,1248.2969,418.7,1252.2969" style="stroke:#181818;stroke-width:1;"/></g><!--link marks_on_objects to marks--><g id="link_marks_on_objects_marks"><path codeLine="103" d="M377.2,88.2969 C402.98,88.2969 394.95,127.5969 377.2,146.2969 C353.68,171.0669 102.93,152.5269 70.2,162.2969 C55.41,166.7169 47.89,166.4069 40.2,179.7969 C6,239.3369 6,429.2569 40.2,488.7969 C47.89,502.1869 55.41,501.8669 70.2,506.2969 C105.21,516.7969 373.57,497.7469 398.7,524.2969 C413.37,539.7869 426.03,572.2969 404.7,572.2969 " fill="none" id="marks_on_objects-to-marks" style="stroke:#181818;stroke-width:1;"/><polygon fill="#181818" points="398.7,572.2969,407.7,576.2969,403.7,572.2969,407.7,568.2969,398.7,572.2969" style="stroke:#181818;stroke-width:1;"/></g><!--link marks_on_objects to objects--><g id="link_marks_on_objects_objects"><path codeLine="104" d="M370.7,104.2969 C398.16,104.2969 416.16,227.2969 388.7,227.2969 " fill="none" id="marks_on_objects-to-objects" style="stroke:#181818;stroke-width:1;"/><polygon fill="#181818" points="382.7,227.2969,391.7,231.2969,387.7,227.2969,391.7,223.2969,382.7,227.2969" style="stroke:#181818;stroke-width:1;"/></g><!--link access_to_privileges to privilege--><g id="link_access_to_privileges_privilege"><path codeLine="105" d="M384.7,866.2969 C433.16,866.2969 418.16,973.2969 369.7,973.2969 " fill="none" id="access_to_privileges-to-privilege" style="stroke:#181818;stroke-width:1;"/><polygon fill="#181818" points="363.7,973.2969,372.7,977.2969,368.7,973.2969,372.7,969.2969,363.7,973.2969" style="stroke:#181818;stroke-width:1;"/></g><!--link access_to_privileges to access--><g id="link_access_to_privileges_access"><path codeLine="106" d="M391.2,850.2969 C409.87,850.2969 404.09,878.7969 391.2,892.2969 C366.55,918.1269 104.44,897.1769 70.2,907.2969 C55.4,911.6769 47.89,911.4069 40.2,924.7969 C18.01,963.4369 18.01,1287.1569 40.2,1325.7969 C47.89,1339.1869 55.43,1338.8269 70.2,1343.2969 C102.21,1352.9869 347.77,1336.9469 370.7,1361.2969 C385.33,1376.8269 398.03,1409.2969 376.7,1409.2969 " fill="none" id="access_to_privileges-to-access" style="stroke:#181818;stroke-width:1;"/><polygon fill="#181818" points="370.7,1409.2969,379.7,1413.2969,375.7,1409.2969,379.7,1405.2969,370.7,1409.2969" style="stroke:#181818;stroke-width:1;"/></g><rect fill="#FFE4E1" height="75.1875" id="_legend" rx="7.5" ry="7.5" style="stroke:#D87093;stroke-width:1;" width="208.8438" x="254.4163" y="1463.8906"/><text fill="#D87093" font-family="sans-serif" font-size="14" font-weight="bold" lengthAdjust="spacing" textLength="193.9697" x="259.4163" y="1481.8857">&#1059;&#1089;&#1083;&#1086;&#1074;&#1085;&#1099;&#1077; &#1086;&#1073;&#1086;&#1079;&#1085;&#1072;&#1095;&#1077;&#1085;&#1080;&#1103;:</text><ellipse cx="264.9163" cy="1493.9844" fill="#D87093" rx="2.5" ry="2.5" style="stroke:#D87093;stroke-width:0;"/><text fill="#D87093" font-family="sans-serif" font-size="14" lengthAdjust="spacing" textLength="151.1768" x="271.4163" y="1498.1826">- &#1086;&#1073;&#1103;&#1079;&#1072;&#1090;&#1077;&#1083;&#1100;&#1085;&#1086;&#1077; &#1087;&#1086;&#1083;&#1077;</text><text fill="#D87093" font-family="sans-serif" font-size="14" lengthAdjust="spacing" textLength="155.0664" x="259.4163" y="1514.4795">PK - &#1087;&#1077;&#1088;&#1074;&#1080;&#1095;&#1085;&#1099;&#1081; &#1082;&#1083;&#1102;&#1095;</text><text fill="#D87093" font-family="sans-serif" font-size="14" lengthAdjust="spacing" textLength="139.2754" x="259.4163" y="1530.7764">FK - &#1074;&#1085;&#1077;&#1096;&#1085;&#1080;&#1081; &#1082;&#1083;&#1102;&#1095;</text><text fill="#888888" font-family="sans-serif" font-size="10" lengthAdjust="spacing" textLength="104.0039" x="185.628" y="1561.3604">Buchkin Timur, 2024</text><!--SRC=[hLRRRXit47tdLz0B0xNS-bBtyh0m1DH6d01f0SCfyX8K0hqxibXJf49orIf1WROlBj0Y_eZ-W9FMQ5etyI_i_b5dkHJt8jMm0KkGTZbpPkRmSCZTbM4c4ykLfAiii-e496Xc8LrRPJsoei5cMj9eDr52wVX8pPZO4ndq8_eX1k1VH7TtMu7qy76_lxlb0leHMG6PpaiGib9NooH_di7IClkQZusIxI8L_bQf3TWz9RfJE6xbspfUo61EkPmmpSRqIy3ff7iiEJtHAfFfVbcHViMDdHqf0uj8fLFG5UgG2NZAbG1x1Ea2ya19kmpN0EuBPWnzIIX-7W73n5qYPUX33I393uHyK4SABi7E9a2LjYFLIFarjmBgqayuICa8SMRwu6WZ_pD_cr_aVnG_ul-_-BsWqHSwInGTCtrgw1FGKvv0H0GCBRMAQduoiZJb6YhjG5fkPpGAqaUP0MsYNaIPeUxUpsYzssSHJsbCiuodKSyXDZSza2K963CGC0NX8MMpEUictXzWetceK2TS8cRAT39YUktZxUtUl9nlj6Y2idw72uKvHioC8EtteruZPkUpptkbe8jpgKhwoLI3kyv6iZ5q-TrGQs3LOABvb0licdRbjYlmyCvG_l-K2g4jQB06z59o0UOPXV7T5_VMWfJDCs2kpPhzD3VTJ-NAu_8sPN6Dsn7GSXTUNenbuyborcxVUBhL7hepppBCi-7IDerkZmUImMHkNhmQr-1L6UvFn24RSp6xrS8AbR3cgeRnVUmjhnQNWuaow1mAnUopJxu9CdxVTI37PIpLyRTuniqv-j5zCJJy1IoIcmlHQiMWJlVaOyQMK-7kqRUOgtHdanJf3UxGkGEitfvvrnmaQBHftOzTbbLG2-RpT80Q14vp2ajMnst6E6uz5JRw_k2BOvuILpcEwps2xhh97SHNZUEco0WByZfKyu29u_cnW33FOLwheOSlMy4yaQMmMWe41Yj2bntlSTmwhp4YZ6-8gPy5RNs8SEyWrTERr4kU_rxyb5_bx_Ct-RlYr_oIukrh_FsLlyilYhFy4gzlY_COctgTRZXlSOxUY-9dz5qLlw7_VHbsZPUh_98SFYvXr_ablb2ymT0pb_Tlcl-3w5V56Jbm02o7a5_Ax4rdIR5YIiXGAGkQxcN92Dzcy4LcdEcFwCxspgV_0G00]--></g></svg>
