<svg xmlns="http://www.w3.org/2000/svg" xmlns:xlink="http://www.w3.org/1999/xlink" contentStyleType="text/css" height="1432px" preserveAspectRatio="none" style="width:468px;height:1432px;background:#FFFFFF;" version="1.1" viewBox="0 0 468 1432" width="468px" zoomAndPan="magnify"><title>ER-&#1076;&#1080;&#1072;&#1075;&#1088;&#1072;&#1084;&#1084;&#1072; "Aruco marks Service"</title><defs/><g><text fill="#A0522D" font-family="sans-serif" font-size="14" font-weight="bold" lengthAdjust="spacing" textLength="297.4521" x="78.3939" y="22.9951">ER-&#1076;&#1080;&#1072;&#1075;&#1088;&#1072;&#1084;&#1084;&#1072; "Aruco marks Service"</text><!--class users--><g id="elem_users"><rect codeLine="26" fill="#F1F1F1" height="113.1875" id="users" rx="2.5" ry="2.5" style="stroke:#181818;stroke-width:0.5;" width="339.79" x="94.7" y="930.7969"/><rect fill="#98FB98" height="32" rx="2.5" ry="2.5" style="stroke:#98FB98;stroke-width:0.5;" width="339.79" x="94.7" y="930.7969"/><rect fill="#98FB98" height="2.5" style="stroke:#98FB98;stroke-width:0.5;" width="339.79" x="94.7" y="960.2969"/><rect codeLine="26" fill="none" height="113.1875" id="users" rx="2.5" ry="2.5" style="stroke:#181818;stroke-width:0.5;" width="339.79" x="94.7" y="930.7969"/><ellipse cx="236.3919" cy="946.7969" fill="#ADD1B2" rx="11" ry="11" style="stroke:#181818;stroke-width:1;"/><path d="M240.5013,952.7969 L232.7825,952.7969 L232.7825,940.4063 L240.5013,940.4063 L240.5013,942.5625 L235.2356,942.5625 L235.2356,945.2344 L240.0013,945.2344 L240.0013,947.3906 L235.2356,947.3906 L235.2356,950.6406 L240.5013,950.6406 L240.5013,952.7969 Z " fill="#000000"/><text fill="#000000" font-family="sans-serif" font-size="14" font-weight="bold" lengthAdjust="spacing" textLength="43.0322" x="256.8919" y="951.6436">users</text><line style="stroke:#181818;stroke-width:0.5;" x1="95.7" x2="433.49" y1="962.7969" y2="962.7969"/><ellipse cx="105.7" cy="976.4453" fill="#000000" rx="3" ry="3" style="stroke:#000000;stroke-width:1;"/><text fill="#4169E1" font-family="sans-serif" font-size="14" lengthAdjust="spacing" textLength="204.3877" x="114.7" y="979.792">id : uuid &#171;autogenerated PK&#187;</text><line style="stroke:#181818;stroke-width:1;stroke-dasharray:1.0,2.0;" x1="95.7" x2="433.49" y1="987.0938" y2="987.0938"/><ellipse cx="105.7" cy="1000.7422" fill="#000000" rx="3" ry="3" style="stroke:#000000;stroke-width:1;"/><text fill="#000000" font-family="sans-serif" font-size="14" lengthAdjust="spacing" textLength="239.2715" x="114.7" y="1004.0889">access_level : uuid &#171;access.id FK&#187;</text><ellipse cx="105.7" cy="1017.0391" fill="#000000" rx="3" ry="3" style="stroke:#000000;stroke-width:1;"/><text fill="#000000" font-family="sans-serif" font-size="14" lengthAdjust="spacing" textLength="138.8926" x="114.7" y="1020.3857">login : varchar(100)</text><ellipse cx="105.7" cy="1033.3359" fill="#000000" rx="3" ry="3" style="stroke:#000000;stroke-width:1;"/><text fill="#DC143C" font-family="sans-serif" font-size="14" lengthAdjust="spacing" textLength="209.002" x="114.7" y="1036.6826">password &#171;hashed&#187; &#171;unique&#187;</text><text fill="#000000" font-family="sans-serif" font-size="14" lengthAdjust="spacing" textLength="100.3379" x="328.1521" y="1036.6826">: varchar(256)</text></g><!--class access--><g id="elem_access"><rect codeLine="34" fill="#F1F1F1" height="96.8906" id="access" rx="2.5" ry="2.5" style="stroke:#181818;stroke-width:0.5;" width="230.3877" x="149.2" y="1087.2969"/><rect fill="#98FB98" height="32" rx="2.5" ry="2.5" style="stroke:#98FB98;stroke-width:0.5;" width="230.3877" x="149.2" y="1087.2969"/><rect fill="#98FB98" height="2.5" style="stroke:#98FB98;stroke-width:0.5;" width="230.3877" x="149.2" y="1116.7969"/><rect codeLine="34" fill="none" height="96.8906" id="access" rx="2.5" ry="2.5" style="stroke:#181818;stroke-width:0.5;" width="230.3877" x="149.2" y="1087.2969"/><ellipse cx="231.6038" cy="1103.2969" fill="#ADD1B2" rx="11" ry="11" style="stroke:#181818;stroke-width:1;"/><path d="M235.7132,1109.2969 L227.9944,1109.2969 L227.9944,1096.9063 L235.7132,1096.9063 L235.7132,1099.0625 L230.4476,1099.0625 L230.4476,1101.7344 L235.2132,1101.7344 L235.2132,1103.8906 L230.4476,1103.8906 L230.4476,1107.1406 L235.7132,1107.1406 L235.7132,1109.2969 Z " fill="#000000"/><text fill="#000000" font-family="sans-serif" font-size="14" font-weight="bold" lengthAdjust="spacing" textLength="52.2061" x="252.1038" y="1108.1436">access</text><line style="stroke:#181818;stroke-width:0.5;" x1="150.2" x2="378.5877" y1="1119.2969" y2="1119.2969"/><ellipse cx="160.2" cy="1132.9453" fill="#000000" rx="3" ry="3" style="stroke:#000000;stroke-width:1;"/><text fill="#4169E1" font-family="sans-serif" font-size="14" lengthAdjust="spacing" textLength="204.3877" x="169.2" y="1136.292">id : uuid &#171;autogenerated PK&#187;</text><line style="stroke:#181818;stroke-width:1;stroke-dasharray:1.0,2.0;" x1="150.2" x2="378.5877" y1="1143.5938" y2="1143.5938"/><text fill="#000000" font-family="sans-serif" font-size="14" lengthAdjust="spacing" textLength="144.4912" x="169.2" y="1160.5889">name : varchar(100)</text><ellipse cx="160.2" cy="1173.5391" fill="#000000" rx="3" ry="3" style="stroke:#000000;stroke-width:1;"/><text fill="#000000" font-family="sans-serif" font-size="14" lengthAdjust="spacing" textLength="123.0674" x="169.2" y="1176.8857">privileges : uuid[]</text></g><!--class privilege--><g id="elem_privilege"><rect codeLine="41" fill="#F1F1F1" height="80.5938" id="privilege" rx="2.5" ry="2.5" style="stroke:#181818;stroke-width:0.5;" width="230.3877" x="149.2" y="1226.2969"/><rect fill="#98FB98" height="32" rx="2.5" ry="2.5" style="stroke:#98FB98;stroke-width:0.5;" width="230.3877" x="149.2" y="1226.2969"/><rect fill="#98FB98" height="2.5" style="stroke:#98FB98;stroke-width:0.5;" width="230.3877" x="149.2" y="1255.7969"/><rect codeLine="41" fill="none" height="80.5938" id="privilege" rx="2.5" ry="2.5" style="stroke:#181818;stroke-width:0.5;" width="230.3877" x="149.2" y="1226.2969"/><ellipse cx="222.9769" cy="1242.2969" fill="#ADD1B2" rx="11" ry="11" style="stroke:#181818;stroke-width:1;"/><path d="M227.0862,1248.2969 L219.3675,1248.2969 L219.3675,1235.9063 L227.0862,1235.9063 L227.0862,1238.0625 L221.8206,1238.0625 L221.8206,1240.7344 L226.5862,1240.7344 L226.5862,1242.8906 L221.8206,1242.8906 L221.8206,1246.1406 L227.0862,1246.1406 L227.0862,1248.2969 Z " fill="#000000"/><text fill="#000000" font-family="sans-serif" font-size="14" font-weight="bold" lengthAdjust="spacing" textLength="69.46" x="243.4769" y="1247.1436">privilege</text><line style="stroke:#181818;stroke-width:0.5;" x1="150.2" x2="378.5877" y1="1258.2969" y2="1258.2969"/><ellipse cx="160.2" cy="1271.9453" fill="#000000" rx="3" ry="3" style="stroke:#000000;stroke-width:1;"/><text fill="#4169E1" font-family="sans-serif" font-size="14" lengthAdjust="spacing" textLength="204.3877" x="169.2" y="1275.292">id : uuid &#171;autogenerated PK&#187;</text><line style="stroke:#181818;stroke-width:1;stroke-dasharray:1.0,2.0;" x1="150.2" x2="378.5877" y1="1282.5938" y2="1282.5938"/><ellipse cx="160.2" cy="1296.2422" fill="#000000" rx="3" ry="3" style="stroke:#000000;stroke-width:1;"/><text fill="#000000" font-family="sans-serif" font-size="14" lengthAdjust="spacing" textLength="144.4912" x="169.2" y="1299.5889">name : varchar(100)</text></g><!--class user_actions--><g id="elem_user_actions"><rect codeLine="47" fill="#F1F1F1" height="80.5938" id="user_actions" rx="2.5" ry="2.5" style="stroke:#181818;stroke-width:0.5;" width="230.3877" x="149.2" y="807.2969"/><rect fill="#98FB98" height="32" rx="2.5" ry="2.5" style="stroke:#98FB98;stroke-width:0.5;" width="230.3877" x="149.2" y="807.2969"/><rect fill="#98FB98" height="2.5" style="stroke:#98FB98;stroke-width:0.5;" width="230.3877" x="149.2" y="836.7969"/><rect codeLine="47" fill="none" height="80.5938" id="user_actions" rx="2.5" ry="2.5" style="stroke:#181818;stroke-width:0.5;" width="230.3877" x="149.2" y="807.2969"/><ellipse cx="208.2796" cy="823.2969" fill="#ADD1B2" rx="11" ry="11" style="stroke:#181818;stroke-width:1;"/><path d="M212.389,829.2969 L204.6702,829.2969 L204.6702,816.9063 L212.389,816.9063 L212.389,819.0625 L207.1233,819.0625 L207.1233,821.7344 L211.889,821.7344 L211.889,823.8906 L207.1233,823.8906 L207.1233,827.1406 L212.389,827.1406 L212.389,829.2969 Z " fill="#000000"/><text fill="#000000" font-family="sans-serif" font-size="14" font-weight="bold" lengthAdjust="spacing" textLength="98.8545" x="228.7796" y="828.1436">user_actions</text><line style="stroke:#181818;stroke-width:0.5;" x1="150.2" x2="378.5877" y1="839.2969" y2="839.2969"/><ellipse cx="160.2" cy="852.9453" fill="#000000" rx="3" ry="3" style="stroke:#000000;stroke-width:1;"/><text fill="#4169E1" font-family="sans-serif" font-size="14" lengthAdjust="spacing" textLength="204.3877" x="169.2" y="856.292">id : uuid &#171;autogenerated PK&#187;</text><line style="stroke:#181818;stroke-width:1;stroke-dasharray:1.0,2.0;" x1="150.2" x2="378.5877" y1="863.5938" y2="863.5938"/><ellipse cx="160.2" cy="877.2422" fill="#000000" rx="3" ry="3" style="stroke:#000000;stroke-width:1;"/><text fill="#000000" font-family="sans-serif" font-size="14" lengthAdjust="spacing" textLength="144.4912" x="169.2" y="880.5889">name : varchar(100)</text></g><!--class marks--><g id="elem_marks"><rect codeLine="53" fill="#F1F1F1" height="129.4844" id="marks" rx="2.5" ry="2.5" style="stroke:#181818;stroke-width:0.5;" width="286.6338" x="121.2" y="339.7969"/><rect fill="#98FB98" height="32" rx="2.5" ry="2.5" style="stroke:#98FB98;stroke-width:0.5;" width="286.6338" x="121.2" y="339.7969"/><rect fill="#98FB98" height="2.5" style="stroke:#98FB98;stroke-width:0.5;" width="286.6338" x="121.2" y="369.2969"/><rect codeLine="53" fill="none" height="129.4844" id="marks" rx="2.5" ry="2.5" style="stroke:#181818;stroke-width:0.5;" width="286.6338" x="121.2" y="339.7969"/><ellipse cx="233.5384" cy="355.7969" fill="#ADD1B2" rx="11" ry="11" style="stroke:#181818;stroke-width:1;"/><path d="M237.6478,361.7969 L229.929,361.7969 L229.929,349.4063 L237.6478,349.4063 L237.6478,351.5625 L232.3821,351.5625 L232.3821,354.2344 L237.1478,354.2344 L237.1478,356.3906 L232.3821,356.3906 L232.3821,359.6406 L237.6478,359.6406 L237.6478,361.7969 Z " fill="#000000"/><text fill="#000000" font-family="sans-serif" font-size="14" font-weight="bold" lengthAdjust="spacing" textLength="48.583" x="254.0384" y="360.6436">marks</text><line style="stroke:#181818;stroke-width:0.5;" x1="122.2" x2="406.8338" y1="371.7969" y2="371.7969"/><ellipse cx="132.2" cy="385.4453" fill="#000000" rx="3" ry="3" style="stroke:#000000;stroke-width:1;"/><text fill="#4169E1" font-family="sans-serif" font-size="14" lengthAdjust="spacing" textLength="204.3877" x="141.2" y="388.792">id : uuid &#171;autogenerated PK&#187;</text><line style="stroke:#181818;stroke-width:1;stroke-dasharray:1.0,2.0;" x1="122.2" x2="406.8338" y1="396.0938" y2="396.0938"/><ellipse cx="132.2" cy="409.7422" fill="#000000" rx="3" ry="3" style="stroke:#000000;stroke-width:1;"/><text fill="#000000" font-family="sans-serif" font-size="14" lengthAdjust="spacing" textLength="96.5986" x="141.2" y="413.0889">mark_id : uint</text><ellipse cx="132.2" cy="426.0391" fill="#000000" rx="3" ry="3" style="stroke:#000000;stroke-width:1;"/><text fill="#000000" font-family="sans-serif" font-size="14" lengthAdjust="spacing" textLength="260.6338" x="141.2" y="429.3857">mark_type : uuid &#171;mark_types.id FK&#187;</text><ellipse cx="132.2" cy="442.3359" fill="#000000" rx="3" ry="3" style="stroke:#000000;stroke-width:1;"/><text fill="#000000" font-family="sans-serif" font-size="14" lengthAdjust="spacing" textLength="242.7988" x="141.2" y="445.6826">location_id : uuid &#171;locations.id FK&#187;</text><ellipse cx="132.2" cy="458.6328" fill="#000000" rx="3" ry="3" style="stroke:#000000;stroke-width:1;"/><text fill="#000000" font-family="sans-serif" font-size="14" lengthAdjust="spacing" textLength="152.6055" x="141.2" y="461.9795">last_position : float[3]</text></g><!--class mark_types--><g id="elem_mark_types"><rect codeLine="62" fill="#F1F1F1" height="96.8906" id="mark_types" rx="2.5" ry="2.5" style="stroke:#181818;stroke-width:0.5;" width="230.3877" x="149.2" y="668.2969"/><rect fill="#98FB98" height="32" rx="2.5" ry="2.5" style="stroke:#98FB98;stroke-width:0.5;" width="230.3877" x="149.2" y="668.2969"/><rect fill="#98FB98" height="2.5" style="stroke:#98FB98;stroke-width:0.5;" width="230.3877" x="149.2" y="697.7969"/><rect codeLine="62" fill="none" height="96.8906" id="mark_types" rx="2.5" ry="2.5" style="stroke:#181818;stroke-width:0.5;" width="230.3877" x="149.2" y="668.2969"/><ellipse cx="212.2479" cy="684.2969" fill="#ADD1B2" rx="11" ry="11" style="stroke:#181818;stroke-width:1;"/><path d="M216.3572,690.2969 L208.6385,690.2969 L208.6385,677.9063 L216.3572,677.9063 L216.3572,680.0625 L211.0916,680.0625 L211.0916,682.7344 L215.8572,682.7344 L215.8572,684.8906 L211.0916,684.8906 L211.0916,688.1406 L216.3572,688.1406 L216.3572,690.2969 Z " fill="#000000"/><text fill="#000000" font-family="sans-serif" font-size="14" font-weight="bold" lengthAdjust="spacing" textLength="90.918" x="232.7479" y="689.1436">mark_types</text><line style="stroke:#181818;stroke-width:0.5;" x1="150.2" x2="378.5877" y1="700.2969" y2="700.2969"/><ellipse cx="160.2" cy="713.9453" fill="#000000" rx="3" ry="3" style="stroke:#000000;stroke-width:1;"/><text fill="#4169E1" font-family="sans-serif" font-size="14" lengthAdjust="spacing" textLength="204.3877" x="169.2" y="717.292">id : uuid &#171;autogenerated PK&#187;</text><line style="stroke:#181818;stroke-width:1;stroke-dasharray:1.0,2.0;" x1="150.2" x2="378.5877" y1="724.5938" y2="724.5938"/><ellipse cx="160.2" cy="738.2422" fill="#000000" rx="3" ry="3" style="stroke:#000000;stroke-width:1;"/><text fill="#000000" font-family="sans-serif" font-size="14" lengthAdjust="spacing" textLength="144.4912" x="169.2" y="741.5889">name : varchar(100)</text><text fill="#000000" font-family="sans-serif" font-size="14" lengthAdjust="spacing" textLength="147.998" x="169.2" y="757.8857">family : varchar(100)</text></g><!--class locations--><g id="elem_locations"><rect codeLine="69" fill="#F1F1F1" height="113.1875" id="locations" rx="2.5" ry="2.5" style="stroke:#181818;stroke-width:0.5;" width="230.3877" x="149.2" y="511.7969"/><rect fill="#98FB98" height="32" rx="2.5" ry="2.5" style="stroke:#98FB98;stroke-width:0.5;" width="230.3877" x="149.2" y="511.7969"/><rect fill="#98FB98" height="2.5" style="stroke:#98FB98;stroke-width:0.5;" width="230.3877" x="149.2" y="541.2969"/><rect codeLine="69" fill="none" height="113.1875" id="locations" rx="2.5" ry="2.5" style="stroke:#181818;stroke-width:0.5;" width="230.3877" x="149.2" y="511.7969"/><ellipse cx="221.9207" cy="527.7969" fill="#ADD1B2" rx="11" ry="11" style="stroke:#181818;stroke-width:1;"/><path d="M226.0301,533.7969 L218.3113,533.7969 L218.3113,521.4063 L226.0301,521.4063 L226.0301,523.5625 L220.7645,523.5625 L220.7645,526.2344 L225.5301,526.2344 L225.5301,528.3906 L220.7645,528.3906 L220.7645,531.6406 L226.0301,531.6406 L226.0301,533.7969 Z " fill="#000000"/><text fill="#000000" font-family="sans-serif" font-size="14" font-weight="bold" lengthAdjust="spacing" textLength="71.5723" x="242.4207" y="532.6436">locations</text><line style="stroke:#181818;stroke-width:0.5;" x1="150.2" x2="378.5877" y1="543.7969" y2="543.7969"/><ellipse cx="160.2" cy="557.4453" fill="#000000" rx="3" ry="3" style="stroke:#000000;stroke-width:1;"/><text fill="#4169E1" font-family="sans-serif" font-size="14" lengthAdjust="spacing" textLength="204.3877" x="169.2" y="560.792">id : uuid &#171;autogenerated PK&#187;</text><line style="stroke:#181818;stroke-width:1;stroke-dasharray:1.0,2.0;" x1="150.2" x2="378.5877" y1="568.0938" y2="568.0938"/><text fill="#000000" font-family="sans-serif" font-size="14" lengthAdjust="spacing" textLength="144.4912" x="169.2" y="585.0889">name : varchar(100)</text><ellipse cx="160.2" cy="598.0391" fill="#000000" rx="3" ry="3" style="stroke:#000000;stroke-width:1;"/><text fill="#000000" font-family="sans-serif" font-size="14" lengthAdjust="spacing" textLength="123.0469" x="169.2" y="601.3857">min_pos : float[3]</text><ellipse cx="160.2" cy="614.3359" fill="#000000" rx="3" ry="3" style="stroke:#000000;stroke-width:1;"/><text fill="#000000" font-family="sans-serif" font-size="14" lengthAdjust="spacing" textLength="127.1484" x="169.2" y="617.6826">max_pos : float[3]</text></g><!--class objects--><g id="elem_objects"><rect codeLine="79" fill="#F1F1F1" height="113.1875" id="objects" rx="2.5" ry="2.5" style="stroke:#181818;stroke-width:0.5;" width="230.3877" x="149.2" y="183.7969"/><rect fill="#98FB98" height="32" rx="2.5" ry="2.5" style="stroke:#98FB98;stroke-width:0.5;" width="230.3877" x="149.2" y="183.7969"/><rect fill="#98FB98" height="2.5" style="stroke:#98FB98;stroke-width:0.5;" width="230.3877" x="149.2" y="213.2969"/><rect codeLine="79" fill="none" height="113.1875" id="objects" rx="2.5" ry="2.5" style="stroke:#181818;stroke-width:0.5;" width="230.3877" x="149.2" y="183.7969"/><ellipse cx="229.0779" cy="199.7969" fill="#ADD1B2" rx="11" ry="11" style="stroke:#181818;stroke-width:1;"/><path d="M233.1873,205.7969 L225.4686,205.7969 L225.4686,193.4063 L233.1873,193.4063 L233.1873,195.5625 L227.9217,195.5625 L227.9217,198.2344 L232.6873,198.2344 L232.6873,200.3906 L227.9217,200.3906 L227.9217,203.6406 L233.1873,203.6406 L233.1873,205.7969 Z " fill="#000000"/><text fill="#000000" font-family="sans-serif" font-size="14" font-weight="bold" lengthAdjust="spacing" textLength="57.2578" x="249.5779" y="204.6436">objects</text><line style="stroke:#181818;stroke-width:0.5;" x1="150.2" x2="378.5877" y1="215.7969" y2="215.7969"/><ellipse cx="160.2" cy="229.4453" fill="#000000" rx="3" ry="3" style="stroke:#000000;stroke-width:1;"/><text fill="#4169E1" font-family="sans-serif" font-size="14" lengthAdjust="spacing" textLength="204.3877" x="169.2" y="232.792">id : uuid &#171;autogenerated PK&#187;</text><line style="stroke:#181818;stroke-width:1;stroke-dasharray:1.0,2.0;" x1="150.2" x2="378.5877" y1="240.0938" y2="240.0938"/><text fill="#000000" font-family="sans-serif" font-size="14" lengthAdjust="spacing" textLength="144.4912" x="155.2" y="257.0889">name : varchar(100)</text><text fill="#000000" font-family="sans-serif" font-size="14" lengthAdjust="spacing" textLength="92.0459" x="155.2" y="273.3857">size : float[3]</text><text fill="#000000" font-family="sans-serif" font-size="14" lengthAdjust="spacing" textLength="93.9873" x="155.2" y="289.6826">marks: uuid[]</text></g><!--class marks_on_objects--><g id="elem_marks_on_objects"><rect codeLine="87" fill="#F1F1F1" height="96.8906" id="marks_on_objects" rx="2.5" ry="2.5" style="stroke:#181818;stroke-width:0.5;" width="243.9844" x="142.7" y="44.2969"/><rect fill="#98FB98" height="32" rx="2.5" ry="2.5" style="stroke:#98FB98;stroke-width:0.5;" width="243.9844" x="142.7" y="44.2969"/><rect fill="#98FB98" height="2.5" style="stroke:#98FB98;stroke-width:0.5;" width="243.9844" x="142.7" y="73.7969"/><rect codeLine="87" fill="none" height="96.8906" id="marks_on_objects" rx="2.5" ry="2.5" style="stroke:#181818;stroke-width:0.5;" width="243.9844" x="142.7" y="44.2969"/><ellipse cx="188.2923" cy="60.2969" fill="#ADD1B2" rx="11" ry="11" style="stroke:#181818;stroke-width:1;"/><path d="M192.4017,66.2969 L184.6829,66.2969 L184.6829,53.9063 L192.4017,53.9063 L192.4017,56.0625 L187.136,56.0625 L187.136,58.7344 L191.9017,58.7344 L191.9017,60.8906 L187.136,60.8906 L187.136,64.1406 L192.4017,64.1406 L192.4017,66.2969 Z " fill="#000000"/><text fill="#000000" font-family="sans-serif" font-size="14" font-weight="bold" lengthAdjust="spacing" textLength="139.4258" x="208.7923" y="65.1436">marks_on_objects</text><line style="stroke:#181818;stroke-width:0.5;" x1="143.7" x2="385.6844" y1="76.2969" y2="76.2969"/><ellipse cx="153.7" cy="89.9453" fill="#000000" rx="3" ry="3" style="stroke:#000000;stroke-width:1;"/><text fill="#000000" font-family="sans-serif" font-size="14" lengthAdjust="spacing" textLength="203.8613" x="162.7" y="93.292">mark_id : uuid &#171;marks.id FK&#187;</text><ellipse cx="153.7" cy="106.2422" fill="#000000" rx="3" ry="3" style="stroke:#000000;stroke-width:1;"/><text fill="#000000" font-family="sans-serif" font-size="14" lengthAdjust="spacing" textLength="217.9844" x="162.7" y="109.5889">object_id : uuid &#171;objects.id FK&#187;</text><ellipse cx="153.7" cy="122.5391" fill="#000000" rx="3" ry="3" style="stroke:#000000;stroke-width:1;"/><text fill="#000000" font-family="sans-serif" font-size="14" lengthAdjust="spacing" textLength="149.7617" x="162.7" y="125.8857">relative_pos : float[3]</text><line style="stroke:#181818;stroke-width:0.5;" x1="143.7" x2="385.6844" y1="133.1875" y2="133.1875"/></g><!--link users to access--><g id="link_users_access"><path codeLine="93" d="M94.2,999.2969 C72.64,999.2969 80.77,1031.7769 95.2,1047.7969 C180.37,1142.2869 294.03,988.8169 379.2,1083.2969 C393.49,1099.1469 407.54,1131.2969 386.2,1131.2969 " fill="none" id="users-to-access" style="stroke:#181818;stroke-width:1;"/><polygon fill="#181818" points="380.2,1131.2969,389.2,1135.2969,385.2,1131.2969,389.2,1127.2969,380.2,1131.2969" style="stroke:#181818;stroke-width:1;"/></g><!--link marks to mark_types--><g id="link_marks_mark_types"><path codeLine="94" d="M415.2,424.2969 C437.65,424.2969 430.7,458.5569 415.2,474.7969 C389.98,501.2369 121.74,479.9269 86.7,490.2969 C71.9,494.6769 64.39,494.4069 56.7,507.7969 C29.92,554.4269 29.92,582.1669 56.7,628.7969 C64.39,642.1869 71.93,641.8269 86.7,646.2969 C118.72,655.9869 364.27,639.9469 387.2,664.2969 C401.83,679.8269 414.54,712.2969 393.2,712.2969 " fill="none" id="marks-to-mark_types" style="stroke:#181818;stroke-width:1;"/><polygon fill="#181818" points="387.2,712.2969,396.2,716.2969,392.2,712.2969,396.2,708.2969,387.2,712.2969" style="stroke:#181818;stroke-width:1;"/></g><!--link marks to locations--><g id="link_marks_locations"><path codeLine="95" d="M408.2,440.2969 C461.24,440.2969 439.24,556.2969 386.2,556.2969 " fill="none" id="marks-to-locations" style="stroke:#181818;stroke-width:1;"/><polygon fill="#181818" points="380.2,556.2969,389.2,560.2969,385.2,556.2969,389.2,552.2969,380.2,556.2969" style="stroke:#181818;stroke-width:1;"/></g><!--link user_actions to users--><g id="link_user_actions_users"><path codeLine="96" d="M141.13,885.0269 C123,895.6669 106.61,909.3269 95.2,926.7969 C83.42,944.8469 66.64,975.2969 88.2,975.2969 " fill="none" id="user_actions-to-users" style="stroke:#181818;stroke-width:1;"/><polygon fill="#181818" points="94.2,975.2969,85.2,971.2969,89.2,975.2969,85.2,979.2969,94.2,975.2969" style="stroke:#181818;stroke-width:1;"/></g><!--link marks_on_objects to marks--><g id="link_marks_on_objects_marks"><path codeLine="97" d="M142.2,88.2969 C40.4,88.2969 6,212.5169 56.7,300.7969 C64.39,314.1869 71.92,313.8769 86.7,318.2969 C121.72,328.7669 390.06,309.2769 415.2,335.7969 C430.04,351.4369 442.76,384.2969 421.2,384.2969 " fill="none" id="marks_on_objects-to-marks" style="stroke:#181818;stroke-width:1;"/><polygon fill="#181818" points="415.2,384.2969,424.2,388.2969,420.2,384.2969,424.2,380.2969,415.2,384.2969" style="stroke:#181818;stroke-width:1;"/></g><!--link marks_on_objects to objects--><g id="link_marks_on_objects_objects"><path codeLine="98" d="M142.2,104.2969 C124.42,104.2969 131.44,130.9669 143.2,144.2969 C213.4,223.8169 309.18,100.1269 379.2,179.7969 C393.44,195.9869 407.76,228.2969 386.2,228.2969 " fill="none" id="marks_on_objects-to-objects" style="stroke:#181818;stroke-width:1;"/><polygon fill="#181818" points="380.2,228.2969,389.2,232.2969,385.2,228.2969,389.2,224.2969,380.2,228.2969" style="stroke:#181818;stroke-width:1;"/></g><!--link access to privilege--><g id="link_access_privilege"><path codeLine="99" d="M380.2,1171.2969 C424.2,1171.2969 430.2,1270.2969 386.2,1270.2969 " fill="none" id="access-to-privilege" style="stroke:#181818;stroke-width:1;"/><polygon fill="#181818" points="380.2,1270.2969,389.2,1274.2969,385.2,1270.2969,389.2,1266.2969,380.2,1270.2969" style="stroke:#181818;stroke-width:1;"/></g><rect fill="#FFE4E1" height="75.1875" id="_legend" rx="7.5" ry="7.5" style="stroke:#D87093;stroke-width:1;" width="208.8438" x="233.3963" y="1324.8906"/><text fill="#D87093" font-family="sans-serif" font-size="14" font-weight="bold" lengthAdjust="spacing" textLength="193.9697" x="238.3963" y="1342.8857">&#1059;&#1089;&#1083;&#1086;&#1074;&#1085;&#1099;&#1077; &#1086;&#1073;&#1086;&#1079;&#1085;&#1072;&#1095;&#1077;&#1085;&#1080;&#1103;:</text><ellipse cx="243.8963" cy="1354.9844" fill="#D87093" rx="2.5" ry="2.5" style="stroke:#D87093;stroke-width:0;"/><text fill="#D87093" font-family="sans-serif" font-size="14" lengthAdjust="spacing" textLength="151.1768" x="250.3963" y="1359.1826">- &#1086;&#1073;&#1103;&#1079;&#1072;&#1090;&#1077;&#1083;&#1100;&#1085;&#1086;&#1077; &#1087;&#1086;&#1083;&#1077;</text><text fill="#D87093" font-family="sans-serif" font-size="14" lengthAdjust="spacing" textLength="155.0664" x="238.3963" y="1375.4795">PK - &#1087;&#1077;&#1088;&#1074;&#1080;&#1095;&#1085;&#1099;&#1081; &#1082;&#1083;&#1102;&#1095;</text><text fill="#D87093" font-family="sans-serif" font-size="14" lengthAdjust="spacing" textLength="139.2754" x="238.3963" y="1391.7764">FK - &#1074;&#1085;&#1077;&#1096;&#1085;&#1080;&#1081; &#1082;&#1083;&#1102;&#1095;</text><text fill="#888888" font-family="sans-serif" font-size="10" lengthAdjust="spacing" textLength="104.0039" x="175.118" y="1422.3604">Buchkin Timur, 2024</text><!--SRC=[jLNTJXD15BwVfnWs95AK7_7dOaEQ215Dq8I0yOQGPjWzfIFJcJepMwt6HBt1H2CFuGiWIaGHU8NTD_Bix7QxRLS32TBGxfppdVETS-RRcObc90FBbQIJBB9g1oHePY6SccGrCg71HbfIRp5GGcb_NVMOM18Hr3rw7GFmowEBYqE1T6srNb-SSm5rZqo03FiKX4mCs2B9dqTGIREiUTieEKoIuI-Kse1TKcAqXUsXV7FROndCBfSTfbcRFW9i9rnYmUwELf4CbrD6-fWRsrjN1iQHIeUWCzGQ4_2KAm5s7S8nv8gIjWfN0YuBPWnzJIZ-FGI6YKSBIKCVQ019tX1oRH0fk0JRwm1LshPKAUKJRWKCg3SuICa8SMPwVtqc_XuVnmVnj-GjVl_6pm7rxkaeKBJDzAwX6w2xF02F26XQQXNLVATbQSWrPBC3QRdjKQyOlHSPqCQhUPGPwfxpZgP7TURnaFeqYdZerHnYTZO7iY00One2kY1oI2esPvt5vnKKMWuLQeTBn7IP3bfCJzsSdw_rwNAXUHqSwmlSACpHOgO5ORtkrKen2tVkrjA1ZlUIKURDP8lBTYDP6whhwsZUvGB5OVB0pQtgAWfWNaYnllnagwgfv4nthi7S7fStis_wZynEU3bb9i9BSwLXZSpBfIqRtKjIAAemZQigO6cVZO82qNtZ69WPs-WemzqPvDEcKCnktjhwUtiPPwd7p70rGqqzJTRcedUXSHTTvUKKwwiJUflBT3xbqVItvEMe0skigb9jFyC3frzZlhgg2Wr_1QF5EUNz-xLqa0QAPBYuKNDHPKcL0_cDYYaB6eBbUKQ06WJkKnSg1kXENTyVEaLdwldvvViy95bt_k2LGFT0XsL8-Kr0KA4EXocV2BxlLXaihw2VfZIDd3I3vHoLiC4W45XO4TfletHy8g9OEGmHxixDRYiosBBuI_8kFedFuiFuDFaO7r5y_8h_F-BJ-23PYu_mzpZPzr4tqtJ6UPDzz1uaxz5tadn2_raQTeu_9_4HMLjDOUVn4LwWXnYwv_B-fF4lH7zEziYA0o0TGZwasSlEjCIiKaAQIbdGT2aAMdXxuyNTZlGDkZ2_SFiF]--></g></svg>
